<svg width="61" height="49" viewBox="0 0 61 49" fill="none" xmlns="http://www.w3.org/2000/svg">
<path d="M57.3389 34.0906L48.6594 36.3826C48.0954 36.531 47.5705 36.8003 47.1213 37.1719C46.672 37.5435 46.3091 38.0083 46.0579 38.5342L43.2272 44.4392L42.0634 46.8693C41.8471 47.3264 41.5083 47.7147 41.0844 47.9911C40.0603 48.6581 38.641 48.6069 37.6649 47.683L31.8703 42.199C31.5207 41.8685 31.0925 41.6324 30.6261 41.5132C30.1598 41.394 29.6707 41.3956 29.2052 41.5179L20.4946 43.8191C19.9888 43.9526 19.4605 43.9781 18.9442 43.8939C18.4279 43.8096 17.9352 43.6176 17.4981 43.3303C17.0611 43.043 16.6897 42.6669 16.408 42.2264C16.1263 41.786 15.9408 41.2912 15.8635 40.7743L12.5943 18.9133C12.4598 18.0131 12.6624 17.095 13.1632 16.3348C13.6641 15.5746 14.4281 15.0256 15.3089 14.793L53.1448 4.80255C53.509 4.70679 53.8892 4.68877 54.2607 4.74966C54.6323 4.81054 54.9869 4.94896 55.3013 5.1559C55.6157 5.36283 55.883 5.63364 56.0856 5.95067C56.2882 6.26769 56.4217 6.62382 56.4774 6.99584L59.9404 30.1438C60.0686 31.0062 59.8742 31.8855 59.3943 32.6136C58.9143 33.3418 58.1825 33.8676 57.3389 34.0906Z" fill="white"/>
<path d="M39.5679 48.5209C38.8396 48.5207 38.1392 48.2408 37.6117 47.7391L31.817 42.2551C31.4762 41.9351 31.0598 41.7066 30.6066 41.5909C30.1535 41.4752 29.6783 41.4761 29.2256 41.5936L20.5151 43.8947C19.9985 44.0311 19.4589 44.057 18.9315 43.9709C18.4042 43.8847 17.901 43.6884 17.4548 43.3948C17.0086 43.1011 16.6294 42.7168 16.342 42.2668C16.0546 41.8168 15.8654 41.3113 15.7869 40.7833L12.5177 18.9222C12.3793 18.0031 12.5857 17.0653 13.0972 16.2889C13.6087 15.5125 14.3893 14.9522 15.2891 14.7157L53.125 4.72748C53.5449 4.6158 53.9855 4.60594 54.41 4.69871C54.9486 4.81514 55.44 5.08993 55.8209 5.48772C56.2156 5.89752 56.4718 6.42064 56.5534 6.98348L60.0164 30.1312C60.1483 31.0125 59.95 31.9114 59.4594 32.6556C58.9689 33.3999 58.2207 33.937 57.3582 34.1642L48.679 36.4577C48.1258 36.6029 47.611 36.8669 47.1704 37.2313C46.7298 37.5957 46.374 38.0517 46.1279 38.5675L43.2969 44.4726L42.1334 46.9026C41.9023 47.3867 41.5387 47.7955 41.0847 48.0817C40.6307 48.3679 40.1048 48.5198 39.5679 48.5198V48.5209ZM29.9172 41.3476C30.6629 41.3472 31.3806 41.6313 31.9236 42.1418L37.7182 47.6258C38.0256 47.9177 38.3979 48.1328 38.8045 48.2535C39.2111 48.3741 39.6405 48.3968 40.0576 48.3197C40.4747 48.2427 40.8675 48.0681 41.2041 47.8101C41.5406 47.5522 41.8112 47.2184 41.9938 46.8359L43.1573 44.4059L45.988 38.5008C46.2438 37.9646 46.6135 37.4907 47.0715 37.1119C47.5294 36.7332 48.0646 36.4587 48.6396 36.3078L57.319 34.0155C58.1448 33.7982 58.8611 33.2839 59.3307 32.5715C59.8003 31.859 59.9901 30.9984 59.8638 30.1548L56.4008 7.00707C56.3213 6.48527 56.0854 5.99979 55.7242 5.61465C55.3629 5.22952 54.8933 4.96282 54.3772 4.84973C53.9764 4.76284 53.5607 4.7727 53.1644 4.87849L15.3288 14.8664C14.4659 15.0932 13.7173 15.6305 13.2267 16.3751C12.7362 17.1198 12.5384 18.0192 12.6712 18.9006L15.9404 40.7617C16.0161 41.2678 16.1977 41.7523 16.4735 42.1836C16.7493 42.6148 17.1131 42.9831 17.541 43.2644C17.9689 43.5457 18.4514 43.7337 18.9569 43.8162C19.4625 43.8986 19.9798 43.8736 20.475 43.7428L29.1856 41.4417C29.4244 41.3791 29.6703 41.3475 29.9172 41.3476Z" fill="#1B1B1B"/>
<g opacity="0.35">
<path opacity="0.35" d="M43.2273 44.4388L42.0635 46.8689C41.8472 47.326 41.5083 47.7143 41.0845 47.9907C40.7201 48.0029 40.3569 47.9422 40.0163 47.8122C39.6757 47.6822 39.3646 47.4855 39.1012 47.2336L33.3065 41.7499C32.9571 41.4193 32.5289 41.1832 32.0626 41.064C31.5963 40.9448 31.1072 40.9465 30.6417 41.0688L21.9309 43.37C21.4249 43.5035 20.8964 43.5289 20.38 43.4445C19.8635 43.3601 19.3707 43.1679 18.9337 42.8803C18.4966 42.5927 18.1253 42.2163 17.8438 41.7755C17.5623 41.3348 17.377 40.8397 17.3 40.3226L14.1734 19.4128C14.1446 18.0241 14.4408 17.0369 15.1754 16.3491C15.4788 16.0646 15.9767 16.2341 16.0392 16.6448L19.0538 36.8134C19.1312 37.3304 19.3168 37.8252 19.5986 38.2657C19.8804 38.7062 20.252 39.0823 20.6892 39.3695C21.1264 39.6568 21.6193 39.8487 22.1357 39.9327C22.6522 40.0168 23.1806 39.991 23.6864 39.8572L32.397 37.5561C32.8624 37.4337 33.3515 37.432 33.8178 37.5511C34.2841 37.6703 34.7123 37.9063 35.0618 38.2369L40.8565 43.7209C41.1675 44.0181 41.5442 44.238 41.956 44.3627C42.3679 44.4874 42.8034 44.5135 43.2273 44.4388Z" fill="#1B1B1B"/>
</g>
<g opacity="0.35">
<path opacity="0.35" d="M57.1019 34.1041H57.1002L48.4199 36.3963C47.5189 36.6344 46.7287 37.1776 46.1841 37.9332L46.5405 37.1902L47.5722 35.0372C47.8235 34.5114 48.1864 34.0466 48.6356 33.6751C49.0849 33.3036 49.6097 33.0343 50.1737 32.8859L58.1808 30.7708C58.2367 30.7559 58.2953 30.7538 58.3521 30.7647C58.4089 30.7757 58.4625 30.7994 58.5088 30.8341C58.5551 30.8688 58.5929 30.9136 58.6193 30.965C58.6458 31.0164 58.6601 31.0732 58.6614 31.131C58.6671 31.7166 58.5277 32.2945 58.2556 32.8132C57.9835 33.332 57.5872 33.7754 57.1019 34.1041Z" fill="#1B1B1B"/>
</g>
<path d="M54.3936 4.77443C53.9809 4.68508 53.5529 4.69494 53.1448 4.80319L15.3104 14.7914C14.598 14.979 13.9579 15.375 13.4723 15.9285C12.9867 16.482 12.6778 17.1678 12.5851 17.898C12.5414 18.2347 12.545 18.5759 12.5957 18.9116L15.8649 40.7727C15.9554 41.3843 16.1975 41.9636 16.5694 42.4578C16.9412 42.952 17.4309 43.3454 17.9939 43.6022L6.48519 39.6189L6.45898 39.6112C5.78344 39.4076 5.17976 39.0164 4.71833 38.4831C4.25691 37.9498 3.95676 37.2965 3.8529 36.5992L0.583701 14.7382C0.537855 14.4348 0.530503 14.1269 0.561817 13.8217C0.637665 13.0732 0.9401 12.3655 1.4288 11.7931C1.91751 11.2207 2.56926 10.8106 3.29719 10.6177L41.1351 0.630894C41.585 0.51122 42.0584 0.511718 42.508 0.632334L42.5235 0.636934L42.8875 0.763786L42.8953 0.76839L54.3936 4.77443Z" fill="#1B1B1B"/>
<g opacity="0.55">
<path opacity="0.55" d="M54.3744 4.83229C53.9616 4.74309 53.5335 4.75295 53.1253 4.86105L51.7326 5.22809L42.8763 2.14309L42.8685 2.13849L42.5043 2.01164L42.489 2.00703C42.0395 1.88646 41.5661 1.88586 41.1162 2.00531L3.27882 11.9926C2.59768 12.1732 1.98218 12.544 1.50444 13.0616C1.02671 13.5791 0.706539 14.222 0.581456 14.9148L0.564181 14.7972C0.518432 14.4939 0.511176 14.1861 0.542586 13.881C0.618356 13.1325 0.920762 12.4248 1.40948 11.8523C1.89819 11.2799 2.54999 10.8698 3.27795 10.677L41.1153 0.688756C41.5652 0.56931 42.0386 0.569907 42.4882 0.690483L42.5034 0.695083L42.8677 0.821936L42.8755 0.826539L54.3744 4.83229Z" fill="white"/>
</g>
<path d="M38.9468 48.37L31.2933 47.222C30.195 47.0573 29.1841 46.5285 28.4228 45.7208L25.4067 42.5199L29.3874 41.6011C29.8418 41.4963 30.3147 41.5011 30.7669 41.6151C31.219 41.7291 31.6375 41.949 31.9878 42.2567L38.9468 48.37Z" fill="#1B1B1B"/>
<g opacity="0.35">
<path opacity="0.35" d="M37.1862 46.8234L32.1059 46.0617C31.0074 45.8971 29.9962 45.3683 29.2349 44.5602L26.9726 42.1595L29.3866 41.6023C29.8411 41.4973 30.3141 41.502 30.7665 41.6158C31.2189 41.7296 31.6376 41.9494 31.9881 42.257L37.1862 46.8234Z" fill="#1B1B1B"/>
</g>
<path d="M39.555 48.9831C38.7113 48.9832 37.9002 48.6575 37.2912 48.0741L31.4966 42.5902C31.2136 42.324 30.8677 42.1339 30.4911 42.0378C30.1146 41.9417 29.7198 41.9426 29.3437 42.0405L20.6325 44.3399C19.6864 44.5893 18.6833 44.5063 17.7912 44.1046L6.31619 40.1334L6.29978 40.1282C5.52637 39.8951 4.83527 39.447 4.3071 38.8364C3.77892 38.2257 3.43547 37.4776 3.31679 36.6793L0.0470125 14.8183C-0.10814 13.7862 0.123739 12.7332 0.698143 11.8614C1.27255 10.9897 2.149 10.3606 3.15929 10.0948L40.9961 0.107225C41.5373 -0.0363232 42.1067 -0.03573 42.6477 0.108949L42.6698 0.115276L42.6863 0.120455L42.7018 0.125634L43.0655 0.251908C43.0776 0.256222 43.0899 0.261112 43.1017 0.26629L54.5428 4.25191C55.1588 4.39199 55.7201 4.70976 56.1569 5.16576C56.6181 5.64519 56.9177 6.25668 57.0138 6.91464L60.4765 30.0629C60.6259 31.0572 60.4024 32.0716 59.849 32.9115C59.2956 33.7513 58.4513 34.3574 57.478 34.6135L48.7976 36.9057C48.3097 37.0339 47.8555 37.2668 47.4669 37.5882C47.0782 37.9096 46.7643 38.3118 46.5471 38.7668L42.5535 47.1024C42.3304 47.5743 41.9975 47.986 41.5828 48.3031C41.168 48.6203 40.6833 48.8338 40.1691 48.9258C39.9666 48.9636 39.761 48.9828 39.555 48.9831ZM29.9262 40.8815C30.788 40.8814 31.6171 41.2114 32.2426 41.8037L38.0376 47.2877C38.292 47.5289 38.6 47.7065 38.9363 47.8061C39.2726 47.9058 39.6277 47.9245 39.9727 47.8609C40.3176 47.7973 40.6426 47.6531 40.9212 47.4401C41.1997 47.2271 41.4239 46.9514 41.5754 46.6353L45.5693 38.2999C45.8543 37.7031 46.266 37.1755 46.7758 36.7539C47.2857 36.3323 47.8814 36.0268 48.5215 35.8587L57.2019 33.5664C57.9169 33.3784 58.5372 32.9331 58.9437 32.3161C59.3503 31.6991 59.5144 30.9539 59.4045 30.2234L55.9421 7.07486C55.8766 6.64647 55.6826 6.24798 55.3859 5.93184C55.0892 5.61571 54.7036 5.39675 54.2799 5.30382C54.2583 5.2992 54.2371 5.29324 54.2163 5.28599L42.7173 1.27909C42.7053 1.27506 42.6932 1.27018 42.6814 1.26529L42.356 1.15224C42.0015 1.05966 41.6291 1.06045 41.2751 1.15454L3.43772 11.1425C2.68569 11.3402 2.03327 11.8085 1.60573 12.4574C1.1782 13.1063 1.00567 13.8901 1.12129 14.6583L4.3902 36.5194C4.48103 37.1142 4.73827 37.6713 5.13227 38.1264C5.52626 38.5816 6.04098 38.9162 6.61708 39.0918L6.64588 39.1004L6.66373 39.1062L18.1719 43.0892C18.1887 43.0949 18.2052 43.1016 18.2214 43.1091C18.8905 43.4155 19.6454 43.4802 20.357 43.2923L29.0679 40.9931C29.348 40.9192 29.6365 40.8817 29.9262 40.8815Z" fill="#1B1B1B"/>
<path d="M38.9468 48.912C38.9196 48.912 38.8925 48.91 38.8656 48.906L31.2121 47.758C29.9941 47.5734 28.873 46.987 28.0272 46.0922L25.0108 42.8913C24.9601 42.8399 24.9203 42.7788 24.8935 42.7118C24.8668 42.6447 24.8537 42.573 24.8551 42.5008C24.8565 42.4287 24.8723 42.3575 24.9015 42.2915C24.9308 42.2255 24.973 42.166 25.0256 42.1166C25.0782 42.0671 25.1402 42.0286 25.2079 42.0034C25.2756 41.9782 25.3477 41.9667 25.4199 41.9697C25.4921 41.9727 25.5629 41.99 25.6283 42.0208C25.6937 42.0515 25.7523 42.095 25.8006 42.1486L28.8167 45.3495C29.4956 46.0677 30.3954 46.5384 31.373 46.6865L39.0266 47.8345C39.1622 47.8544 39.2852 47.9248 39.3709 48.0317C39.4566 48.1385 39.4986 48.2738 39.4885 48.4103C39.4784 48.5469 39.4169 48.6745 39.3164 48.7676C39.2159 48.8606 39.0839 48.9123 38.9468 48.912Z" fill="#1B1B1B"/>
<path d="M17.9927 44.1435C17.9147 44.1434 17.8376 44.1264 17.7667 44.0937C17.1217 43.7995 16.5605 43.3487 16.1345 42.7825C15.7084 42.2162 15.4309 41.5525 15.3273 40.8517L12.0584 18.9906C11.9025 17.9584 12.134 16.905 12.7085 16.033C13.2831 15.161 14.16 14.532 15.1707 14.2669L53.0052 4.27927C53.4965 4.14786 54.0123 4.13632 54.5091 4.24562C54.58 4.25931 54.6475 4.28703 54.7076 4.32716C54.7677 4.36728 54.8191 4.419 54.8589 4.47927C54.8987 4.53954 54.926 4.60714 54.9392 4.67811C54.9525 4.74908 54.9514 4.82198 54.936 4.89252C54.9207 4.96306 54.8914 5.02983 54.8498 5.08889C54.8083 5.14795 54.7553 5.19812 54.6941 5.23644C54.6328 5.27477 54.5645 5.30047 54.4932 5.31205C54.4219 5.32363 54.349 5.32085 54.2787 5.30387C53.9501 5.23178 53.6089 5.23967 53.2839 5.32688L15.4494 15.3145C14.6971 15.5117 14.0444 15.9798 13.6167 16.6288C13.189 17.2778 13.0167 18.0618 13.1327 18.8301L16.4019 40.6912C16.4793 41.2135 16.6863 41.7082 17.0041 42.1303C17.3218 42.5523 17.7402 42.8882 18.2211 43.1074C18.3342 43.1586 18.4263 43.2471 18.482 43.358C18.5377 43.4689 18.5536 43.5955 18.5271 43.7167C18.5006 43.8379 18.4332 43.9464 18.3363 44.024C18.2393 44.1015 18.1187 44.1435 17.9945 44.1429L17.9927 44.1435Z" fill="#1B1B1B"/>
<path d="M41.711 33.5522C41.3766 34.0134 40.8899 34.3418 40.3368 34.4794C39.7836 34.617 39.1996 34.555 38.6877 34.3044L32.3903 31.2266C19.8874 25.0638 31.4839 13.2706 37.4384 21.4668C38.9319 14.8115 45.6914 15.1472 47.6888 19.9618C48.5797 22.1076 48.2284 24.5699 46.8636 26.4508L41.711 33.5522Z" fill="#E07153"/>
<g opacity="0.3">
<path opacity="0.3" d="M41.3246 33.9694L39.9022 35.9291C39.5673 36.3898 39.0806 36.7177 38.5277 36.8553C37.9747 36.9929 37.3909 36.9313 36.8789 36.6813L30.5821 33.6012C23.424 30.0735 24.1646 24.7012 27.223 22.2896C26.1168 24.975 27.0805 28.608 32.3903 31.2253L38.6868 34.3031C39.111 34.5109 39.5869 34.5901 40.0557 34.5308C40.5245 34.4715 40.9656 34.2763 41.3246 33.9694Z" fill="#1B1B1B"/>
</g>
<g opacity="0.3">
<path opacity="0.3" d="M46.865 26.4497L41.711 33.5514C41.3766 34.0126 40.8898 34.341 40.3367 34.4786C39.7836 34.6162 39.1995 34.5543 38.6877 34.3036L32.3911 31.2258C27.5599 28.8455 26.3267 25.6239 26.9757 23.04C27.4577 24.9871 29.0776 27.0147 32.3908 28.6491L38.6874 31.7269C39.1993 31.9775 39.7835 32.0395 40.3367 31.9018C40.8899 31.764 41.3766 31.4355 41.711 30.9741L46.865 23.8713C47.4534 23.0619 47.8589 22.1345 48.0536 21.1533C48.4198 22.9813 47.9822 24.9097 46.865 26.4497Z" fill="#1B1B1B"/>
</g>
<g opacity="0.55">
<path opacity="0.55" d="M48.1319 23.2307C48.0614 22.6518 47.9123 22.0852 47.6888 21.5465C45.8201 17.0457 39.7899 16.4595 37.7931 21.8434C37.7518 21.955 37.6828 22.0544 37.5926 22.1322C37.5024 22.21 37.3939 22.2636 37.2773 22.2881C37.1607 22.3126 37.0397 22.3072 36.9258 22.2723C36.8119 22.2375 36.7086 22.1743 36.6258 22.0887C32.8277 18.2291 27.4966 21.0339 26.8761 25.1237C26.0889 19.9354 33.1959 15.6262 37.4381 21.4663C38.9316 14.8104 45.6902 15.1464 47.6885 19.9601C48.1153 20.9941 48.268 22.1205 48.1319 23.2307Z" fill="white"/>
</g>
<g opacity="0.35">
<path opacity="0.35" d="M15.518 42.7457L6.48519 39.619L6.45898 39.6112C5.78344 39.4076 5.17976 39.0164 4.71833 38.4831C4.25691 37.9498 3.95676 37.2965 3.8529 36.5993L0.583701 14.7382C0.537855 14.4349 0.530503 14.127 0.561817 13.8218L3.7766 14.9114L9.26461 16.7716C9.44313 16.8323 9.62338 16.8895 9.80074 16.9534C10.0714 17.0506 10.254 17.241 10.4377 17.4628C11.2968 18.4983 11.3063 20.1091 11.4998 21.4035C11.7204 22.878 11.9411 24.3525 12.1621 25.827L12.9456 31.0658C13.1916 32.7117 13.4377 34.3576 13.6838 36.0033L14.2102 39.5223C14.2624 39.8704 14.3144 40.2182 14.3662 40.5659C14.4885 41.4029 14.8952 42.1725 15.518 42.7457Z" fill="#1B1B1B"/>
</g>
<path d="M30.0595 19.0483C30.288 19.2425 30.4998 19.4553 30.693 19.6846L30.7644 19.7709C30.7883 19.7997 30.8116 19.8284 30.8335 19.8572L30.9671 20.0335L31.0926 20.2147C31.1346 20.2749 31.1715 20.3379 31.2112 20.3994C31.3646 20.6462 31.5025 20.9024 31.6241 21.1663C31.7435 21.4289 31.8486 21.6977 31.9388 21.9717C32.0279 22.2436 32.1015 22.5202 32.1594 22.8004C32.1882 22.939 32.217 23.0771 32.2386 23.216L32.2734 23.4243L32.3022 23.6325C32.3777 24.188 32.4174 24.7423 32.4462 25.2931C32.4995 26.3942 32.5061 27.4856 32.6377 28.5657C32.7718 29.6503 33.0382 30.7146 33.4309 31.7347C32.9637 30.736 32.6202 29.684 32.4082 28.6022C32.1974 27.516 32.1128 26.4135 31.9832 25.332C31.9178 24.7912 31.8392 24.255 31.731 23.7306L31.6895 23.5339L31.6426 23.3394C31.6138 23.2091 31.5758 23.0806 31.5403 22.9537L31.5136 22.8579L31.4848 22.7641C31.4643 22.702 31.4468 22.6387 31.4237 22.5775L31.3581 22.3928L31.2861 22.2104C31.1873 21.9696 31.0754 21.7343 30.9509 21.5057C30.8268 21.2797 30.6887 21.0616 30.5375 20.8527C30.4989 20.8015 30.4632 20.7486 30.4223 20.6991L30.3028 20.5501L30.1776 20.4063C30.1571 20.3822 30.1355 20.3591 30.1133 20.3367L30.048 20.2685C29.8745 20.0905 29.6867 19.927 29.4865 19.7795L30.0595 19.0483Z" fill="white"/>
<path d="M36.0056 19.7681C36.2177 19.9822 36.4058 20.2188 36.5665 20.4737C36.6474 20.6017 36.7204 20.7344 36.7853 20.8712C36.8524 21.0075 36.9019 21.1511 36.9581 21.2926C37.0543 21.5814 37.126 21.8777 37.1726 22.1785L37.2031 22.4049C37.2123 22.4806 37.2175 22.5562 37.2247 22.6322C37.2319 22.7081 37.236 22.7837 37.2397 22.8594C37.2434 22.935 37.2486 23.0116 37.2486 23.0872C37.2636 23.6947 37.2198 24.2996 37.1766 24.8976C37.1335 25.4957 37.0954 26.0873 37.0903 26.681C37.075 29.046 37.4693 31.3958 38.2558 33.6265L38.2748 33.68L38.2774 33.7663V33.7678H37.3488V33.7663L37.3704 33.9061C37.0404 32.7277 36.8108 31.5236 36.684 30.3065C36.5612 29.0956 36.5419 27.8765 36.6264 26.6624C36.6693 26.0583 36.7447 25.4542 36.8279 24.8611C36.9112 24.268 36.9906 23.6775 37.0142 23.0855C37.0191 23.0113 37.0183 22.9376 37.0197 22.8637C37.0212 22.7898 37.0226 22.7156 37.0197 22.6419C37.0168 22.5683 37.0171 22.4941 37.0131 22.4202L36.9975 22.1992C36.9712 21.9047 36.9203 21.6129 36.8452 21.3268C36.8 21.1862 36.7609 21.0426 36.7041 20.9057C36.6491 20.7678 36.5859 20.6333 36.5147 20.503C36.3722 20.2403 36.2015 19.9938 36.0056 19.7681Z" fill="white"/>
<path d="M39.3546 17.5103C39.6805 17.6423 39.9961 17.7985 40.2987 17.9777C40.6054 18.1589 40.894 18.3691 41.1605 18.6053C41.4314 18.8445 41.6713 19.1166 41.8746 19.4153C42.0773 19.7161 42.238 20.0432 42.352 20.3876C42.3672 20.4299 42.379 20.4739 42.3914 20.5159C42.4038 20.5579 42.417 20.6022 42.428 20.645C42.4478 20.7313 42.4714 20.8176 42.4856 20.9039L42.5103 21.0342L42.5296 21.1645L42.5391 21.2295L42.5463 21.2948L42.5604 21.4248C42.5891 21.7672 42.5933 22.1113 42.5731 22.4543C42.5532 22.7926 42.5187 23.1277 42.4723 23.4562C42.4611 23.5387 42.4513 23.6216 42.4389 23.7033L42.4018 23.9492C42.3779 24.1134 42.3499 24.276 42.3234 24.4382C42.2158 25.0894 42.0966 25.7343 42.0024 26.3804C41.9083 27.0264 41.838 27.6748 41.8296 28.3243C41.8262 28.4057 41.8296 28.4868 41.8296 28.5679L41.8348 28.8116C41.8377 28.8927 41.8455 28.9735 41.8504 29.0546L41.859 29.1763C41.8625 29.2166 41.8633 29.2574 41.8694 29.2977L41.8999 29.5393L41.9154 29.6604C41.9195 29.701 41.9296 29.7404 41.9362 29.7803L41.9817 30.0202C41.9955 30.1008 42.0142 30.1799 42.0335 30.259C42.192 30.8952 42.446 31.5038 42.787 32.064C42.4105 31.5197 42.1187 30.9216 41.9215 30.2901C41.8973 30.211 41.8734 30.1313 41.8544 30.0507L41.7939 29.8091C41.7844 29.7688 41.7721 29.7289 41.7651 29.688L41.7421 29.5655L41.6963 29.3204C41.6877 29.2796 41.6842 29.2384 41.6785 29.1973L41.6624 29.0736C41.6523 28.991 41.6393 28.9088 41.6315 28.8259L41.6117 28.5774C41.6053 28.4946 41.5976 28.4117 41.5961 28.3286C41.5656 27.6644 41.5984 26.9994 41.6537 26.3404C41.709 25.6814 41.7919 25.0267 41.8607 24.3758C41.8771 24.2133 41.8956 24.0504 41.9094 23.8868L41.9316 23.6434C41.9388 23.5623 41.9437 23.4815 41.95 23.4004C41.9765 23.0763 41.9898 22.7551 41.99 22.4368C41.9901 22.1228 41.9678 21.8093 41.9235 21.4985L41.9042 21.3834L41.8947 21.3259L41.8829 21.2683L41.8593 21.1562L41.8305 21.0457C41.8135 20.9712 41.7888 20.9002 41.768 20.8277C41.7565 20.792 41.7433 20.7569 41.7309 20.7215C41.7185 20.6861 41.7067 20.6508 41.6917 20.6168C41.5825 20.342 41.436 20.0835 41.2564 19.8485C41.0747 19.6134 40.8643 19.4018 40.6301 19.2189C40.1605 18.8475 39.6062 18.5725 39.0234 18.3735L39.3546 17.5103Z" fill="white"/>
<path d="M46.1138 17.7295C45.8426 18.4231 45.6633 19.1491 45.5802 19.8891C45.5713 19.9812 45.5607 20.0727 45.5538 20.1647L45.5362 20.4403L45.529 20.7161C45.529 20.8079 45.529 20.8996 45.5307 20.9911C45.5389 21.3564 45.5715 21.7207 45.6283 22.0816C45.7417 22.7962 45.9522 23.492 46.254 24.1497C46.5532 24.7986 46.9352 25.4059 47.3905 25.9567L46.6433 26.5096C46.2083 25.8558 45.8599 25.1486 45.6067 24.4055C45.2325 23.3048 45.0885 22.139 45.1835 20.9805C45.1927 20.8852 45.1999 20.79 45.2123 20.6954L45.2494 20.4121L45.2966 20.1308C45.3136 20.0373 45.3344 19.9444 45.3542 19.8515C45.5141 19.1142 45.7695 18.4009 46.1138 17.7295Z" fill="white"/>
<path d="M27.5666 21.5024C28.1273 21.7804 28.5985 22.2102 28.9265 22.7428L28.9841 22.8414L29.0376 22.9427L29.0641 22.9936L29.088 23.0457C29.1039 23.0805 29.1206 23.1147 29.1352 23.1498C29.1948 23.2895 29.2429 23.4338 29.2792 23.5813C29.3508 23.8707 29.3799 24.1691 29.3656 24.4669C29.3384 25.0454 29.1597 25.6066 28.8473 26.0944C28.6959 26.3314 28.5124 26.5463 28.302 26.733C28.0942 26.9145 27.8631 27.0673 27.6147 27.1875C27.8393 27.0365 28.0427 26.8562 28.2193 26.6513C28.3908 26.4489 28.5335 26.2238 28.6435 25.9825C28.859 25.5115 28.9471 24.9923 28.8991 24.4767C28.8756 24.2297 28.8162 23.9875 28.7229 23.7576C28.699 23.7001 28.6774 23.6448 28.6484 23.5919C28.6193 23.539 28.5908 23.4858 28.562 23.4334C28.5467 23.4078 28.5294 23.3828 28.5133 23.3575L28.4888 23.3198L28.4626 23.2833L28.4097 23.2108L28.3521 23.1409C28.0498 22.7774 27.6516 22.5059 27.2026 22.357L27.5666 21.5024Z" fill="white"/>
<path d="M39.7531 35.0164C39.3129 35.0163 38.8786 34.9154 38.4836 34.7215L32.1862 31.6437C30.0699 30.6007 28.4975 29.3385 27.5104 27.8923C26.6334 26.6065 26.2415 25.1838 26.3777 23.7789C26.4978 22.5343 27.0163 21.357 27.8767 20.3741C28.7045 19.4289 29.8116 18.731 30.9944 18.4095C32.1535 18.0899 33.3837 18.1419 34.5115 18.5582C35.5158 18.9287 36.4269 19.5692 37.2291 20.4673C37.6261 19.2336 38.2308 18.2205 39.0327 17.447C39.9345 16.5772 41.0482 16.0626 42.2521 15.9584C43.4216 15.8575 44.6347 16.1618 45.6675 16.8156C46.7496 17.5008 47.5967 18.5277 48.1199 19.7853C48.5863 20.9181 48.7465 22.1534 48.5846 23.3676C48.4224 24.5806 47.9609 25.7343 47.2414 26.7247L42.0874 33.8272C41.8202 34.1958 41.4693 34.4957 41.0635 34.7024C40.6577 34.9092 40.2086 35.0168 39.7531 35.0164ZM32.5329 19.1268C32.095 19.1275 31.6593 19.1867 31.2372 19.3029C29.124 19.8782 27.5055 21.7536 27.3014 23.8658C27.1519 25.4107 27.6411 28.3675 32.5948 30.809L38.891 33.8868C39.3043 34.0898 39.7762 34.1401 40.2231 34.0289C40.67 33.9176 41.063 33.652 41.3327 33.279L46.4867 26.1765C47.7732 24.4037 48.0703 22.0896 47.2589 20.1379C46.3761 18.0111 44.3954 16.702 42.3301 16.8803C40.1665 17.0673 38.5069 18.8193 37.8901 21.5666C37.8707 21.6539 37.8265 21.7337 37.7628 21.7965C37.6991 21.8593 37.6186 21.9024 37.531 21.9206C37.4434 21.9388 37.3524 21.9314 37.2689 21.8992C37.1854 21.867 37.113 21.8115 37.0603 21.7392C35.8254 20.0361 34.223 19.1268 32.5326 19.1268H32.5329Z" fill="#1B1B1B"/>
<g opacity="0.25">
<path opacity="0.25" d="M31.1222 22.557C31.3379 22.2725 31.6926 22.116 32.0482 22.0804C32.4038 22.0447 32.7614 22.1186 33.1026 22.2242C33.9537 22.4902 34.7291 22.9549 35.3647 23.5799C35.5633 23.7755 35.7511 23.9923 35.8467 24.2541C35.9422 24.5159 35.9299 24.8294 35.7548 25.0477C35.6028 25.2361 35.3517 25.3227 35.1093 25.3296C34.8668 25.3365 34.6287 25.2721 34.3949 25.2094C33.5438 24.9784 30.0097 24.0257 31.1222 22.557Z" fill="white"/>
</g>
<g opacity="0.25">
<path opacity="0.25" d="M38.0326 24.9095C38.2592 24.9501 38.4979 25.018 38.6459 25.1943C38.8155 25.3956 38.8219 25.6833 38.8187 25.9482C38.8155 26.2131 38.8008 26.5074 38.6062 26.6849C38.4841 26.7962 38.3111 26.8376 38.1455 26.8321C37.9799 26.8267 37.8201 26.7792 37.6618 26.732C37.3419 26.6363 36.9995 26.5267 36.798 26.2626C36.5858 25.9876 36.4761 25.3746 36.6868 25.0631C36.9466 24.6797 37.6609 24.8425 38.0326 24.9095Z" fill="white"/>
</g>
<path d="M42.1029 14.3364C42.7614 14.7365 43.3773 15.3184 43.5178 16.0755C43.6583 16.8326 43.1132 17.7309 42.3427 17.7168C41.9108 17.7091 41.5235 17.4292 41.2751 17.0777C41.0266 16.7262 40.895 16.3079 40.7668 15.8983" fill="white"/>
<path d="M42.3603 17.7943H42.3413C41.9261 17.7868 41.504 17.5354 41.2117 17.1223C40.954 16.7576 40.8213 16.3319 40.6934 15.9202L40.8411 15.8742C40.9661 16.2743 41.0954 16.6883 41.339 17.0331C41.6027 17.4071 41.9788 17.6329 42.3447 17.6395H42.3608C42.6422 17.6395 42.9111 17.5046 43.1195 17.2589C43.3885 16.9425 43.5152 16.4823 43.442 16.0894C43.2952 15.2981 42.6113 14.7351 42.0634 14.4023L42.1437 14.27C42.7196 14.6192 43.4371 15.2135 43.5946 16.0612C43.677 16.505 43.5402 17.0021 43.2376 17.359C42.9986 17.6401 42.6879 17.7943 42.3603 17.7943Z" fill="#1B1B1B"/>
<path d="M42.1835 14.2045C42.4859 14.3121 42.7701 14.4652 43.0263 14.6584C43.3012 14.863 43.5325 15.1203 43.7067 15.4152C43.728 15.4546 43.7519 15.4923 43.7706 15.5335C43.7893 15.5746 43.8089 15.6154 43.8282 15.6566C43.8632 15.7409 43.893 15.8274 43.9172 15.9154L43.9356 15.9825C43.9416 16.0043 43.9457 16.0305 43.9509 16.0544C43.956 16.0783 43.9601 16.1033 43.9632 16.1277C43.9664 16.1522 43.9704 16.1769 43.9724 16.2014C43.9821 16.2987 43.9838 16.3966 43.9776 16.4942C43.9653 16.6867 43.9241 16.8763 43.8553 17.0565C43.8215 17.147 43.7806 17.2346 43.7329 17.3186C43.7098 17.3612 43.6831 17.4023 43.6569 17.4434C43.6307 17.4846 43.601 17.524 43.5705 17.5628C43.4439 17.7241 43.2886 17.8606 43.1124 17.9655C42.9242 18.0769 42.7129 18.1433 42.4948 18.1597C42.4402 18.1634 42.3855 18.1642 42.3309 18.162C42.2775 18.159 42.2243 18.1532 42.1714 18.1447C42.0683 18.128 41.9672 18.1004 41.87 18.0621C41.7768 18.0258 41.6873 17.9808 41.6025 17.9278C41.3663 17.7762 41.1668 17.5741 41.0182 17.3361C40.9721 17.2619 40.9303 17.185 40.893 17.106C40.8573 17.0281 40.8259 16.9495 40.798 16.8713C40.746 16.7184 40.7058 16.5617 40.6776 16.4027C40.6499 16.2505 40.6307 16.0968 40.62 15.9425C40.6175 15.9068 40.6271 15.8712 40.6472 15.8416C40.6674 15.812 40.697 15.7901 40.7312 15.7793C40.7654 15.7686 40.8023 15.7698 40.8358 15.7826C40.8692 15.7954 40.8974 15.8191 40.9157 15.8499C40.9943 15.9816 41.0649 16.1139 41.1366 16.2405C41.1732 16.3038 41.2077 16.3662 41.2451 16.426C41.2826 16.4859 41.3188 16.5442 41.3569 16.6003C41.3949 16.6564 41.4337 16.7096 41.4743 16.76C41.5128 16.8094 41.5542 16.8566 41.5981 16.9012C41.6792 16.985 41.7698 17.059 41.8682 17.1215C41.9145 17.15 41.9626 17.1755 42.0122 17.1978C42.024 17.203 42.0361 17.2073 42.0479 17.2122C42.0594 17.2173 42.0712 17.2217 42.0833 17.2254L42.1184 17.2372L42.1533 17.2464C42.1971 17.258 42.2419 17.2649 42.2872 17.2671C42.3091 17.2694 42.3301 17.2671 42.3511 17.2671C42.3712 17.2659 42.3911 17.2637 42.411 17.2605C42.4915 17.2475 42.5684 17.2181 42.637 17.1742C42.7158 17.1225 42.7858 17.0585 42.8443 16.9846C42.9754 16.8184 43.0607 16.6209 43.0919 16.4116C43.0996 16.3605 43.1035 16.3089 43.1038 16.2572C43.1038 16.2442 43.1038 16.2319 43.1038 16.2192C43.1038 16.2065 43.1038 16.1939 43.1017 16.1815C43.1011 16.1686 43.0999 16.1558 43.098 16.143L43.0914 16.1007C43.083 16.0434 43.0718 15.9866 43.0577 15.9304C43.049 15.9016 43.0404 15.8729 43.0323 15.8441C43.0243 15.8153 43.0119 15.7866 43.0021 15.7578C42.9183 15.53 42.7784 15.3062 42.6094 15.0908C42.523 14.9835 42.4317 14.8779 42.3338 14.7744C42.2359 14.6708 42.1323 14.5693 42.0251 14.4651L42.0223 14.4626C41.9965 14.4373 41.9802 14.4041 41.9759 14.3683C41.9717 14.3325 41.9797 14.2964 41.9988 14.2658C42.018 14.2352 42.0469 14.2121 42.081 14.2002C42.115 14.1884 42.1521 14.1885 42.1861 14.2005L42.1835 14.2045Z" fill="#1B1B1B"/>
<path d="M55.9292 34.6704C55.8949 35.4398 55.1607 36.192 54.4138 36.0048C53.9954 35.8995 53.6793 35.5402 53.5166 35.1418C53.5105 35.1263 53.5042 35.1131 53.4996 35.0969C53.351 34.7115 53.3199 34.2915 53.2888 33.8773L54.9436 32.6577C55.1992 32.9015 55.4203 33.1791 55.6006 33.4827C55.816 33.8471 55.9476 34.2495 55.9292 34.6704Z" fill="white"/>
<path d="M55.0513 32.5464C55.3221 32.7195 55.5649 32.9329 55.7711 33.1793C55.9929 33.4408 56.1602 33.744 56.2632 34.071C56.275 34.1141 56.2897 34.1573 56.2986 34.2007C56.3075 34.2441 56.3173 34.289 56.3274 34.3336C56.3428 34.4241 56.3524 34.5154 56.3562 34.6071L56.3591 34.6765C56.3591 34.6992 56.3591 34.7254 56.3591 34.7498C56.3591 34.7743 56.3571 34.7996 56.3545 34.8243C56.3519 34.849 56.3507 34.8738 56.347 34.8979C56.3344 34.9953 56.3139 35.0915 56.2859 35.1856C56.2303 35.3702 56.1473 35.5455 56.0398 35.7057C55.9863 35.7861 55.9266 35.8623 55.8612 35.9335C55.829 35.9697 55.7939 36.0039 55.759 36.0382C55.7242 36.0724 55.6862 36.104 55.647 36.1345C55.4874 36.2636 55.3052 36.362 55.1097 36.4248C54.8483 36.5085 54.568 36.5138 54.3035 36.44C54.2521 36.4251 54.2015 36.4075 54.1521 36.3871C54.0552 36.3479 53.963 36.2983 53.8771 36.2389C53.7946 36.1824 53.7175 36.1184 53.6467 36.0477C53.5794 35.9795 53.5175 35.9061 53.4616 35.8282C53.4079 35.7525 53.3597 35.673 53.3176 35.5903C53.2761 35.5095 53.2405 35.4258 53.2111 35.3398C53.1832 35.2567 53.1598 35.1722 53.1411 35.0866C53.1241 35.0026 53.1123 34.9192 53.1017 34.8367C53.0857 34.6759 53.0819 34.5142 53.0905 34.3529C53.0978 34.1981 53.1138 34.0439 53.1385 33.8909C53.1441 33.8555 53.1615 33.8231 53.1878 33.7988C53.2142 33.7745 53.2479 33.7598 53.2837 33.7571C53.3194 33.7544 53.355 33.7638 53.3848 33.7838C53.4145 33.8038 53.4366 33.8332 53.4475 33.8673C53.4944 34.0132 53.5339 34.1581 53.5745 34.2988C53.5958 34.3684 53.6154 34.4371 53.6384 34.5039C53.6614 34.5706 53.6833 34.6356 53.7078 34.6989C53.7323 34.7622 53.7579 34.8226 53.7861 34.881C53.8126 34.9378 53.8422 34.9931 53.8748 35.0467C53.935 35.1464 54.0067 35.2388 54.0884 35.3219C54.1266 35.3601 54.1673 35.3956 54.2102 35.4284C54.2206 35.4361 54.2312 35.443 54.2416 35.4505C54.2517 35.4581 54.2623 35.4651 54.2733 35.4712L54.3047 35.4908L54.3363 35.5078C54.3766 35.5286 54.4188 35.5454 54.4625 35.5578C54.4829 35.5653 54.5042 35.5679 54.5244 35.5733C54.5445 35.5788 54.5644 35.5797 54.5843 35.5802C54.6656 35.5856 54.7471 35.5741 54.8238 35.5466C54.9124 35.5141 54.9951 35.4676 55.0688 35.4088C55.2341 35.2764 55.3618 35.1032 55.4394 34.9063C55.4586 34.8582 55.4742 34.8088 55.4861 34.7584C55.4898 34.7461 55.4912 34.7337 55.4941 34.7213C55.497 34.7091 55.4992 34.6967 55.5007 34.6842C55.5022 34.6713 55.5054 34.6606 55.5059 34.646L55.5091 34.6031C55.5138 34.5457 55.5156 34.4881 55.5146 34.4305C55.5125 34.4018 55.5102 34.373 55.5091 34.3419C55.5079 34.3109 55.5019 34.2827 55.4987 34.2525C55.4699 34.0117 55.3836 33.7617 55.2684 33.5138C55.2093 33.3901 55.1436 33.2665 55.0714 33.143C54.9986 33.0199 54.9203 32.8977 54.8411 32.7722L54.8391 32.7688C54.82 32.7384 54.8117 32.7025 54.8158 32.6668C54.8198 32.6312 54.8358 32.598 54.8612 32.5726C54.8866 32.5473 54.9199 32.5313 54.9556 32.5273C54.9913 32.5234 55.0272 32.5316 55.0576 32.5508L55.0513 32.5464Z" fill="#1B1B1B"/>
<path d="M58.2718 14.4346C59.002 14.6808 59.5212 15.5947 59.1336 16.2594C58.9162 16.6316 58.4829 16.8347 58.0539 16.8801C58.0372 16.8819 58.0222 16.8839 58.0058 16.8842C57.594 16.9198 57.1806 16.8324 56.7746 16.7473L56.0616 14.82C56.3672 14.6428 56.6955 14.5079 57.0375 14.4191C57.4486 14.3135 57.8722 14.2991 58.2718 14.4346Z" fill="white"/>
<path d="M55.9856 14.6862C56.2267 14.475 56.4986 14.3017 56.7918 14.1722C57.1048 14.0323 57.4425 13.956 57.7852 13.9478C57.8298 13.9478 57.8745 13.9458 57.9197 13.9495C57.9649 13.9533 58.0101 13.9561 58.0553 13.9599C58.1464 13.9706 58.2368 13.9871 58.3259 14.0091L58.3936 14.0258C58.4155 14.0312 58.4405 14.0404 58.4639 14.0476C58.4872 14.0548 58.5111 14.0634 58.5338 14.0726C58.5566 14.0819 58.5805 14.0902 58.6026 14.1014C58.6925 14.1406 58.7792 14.1869 58.8618 14.2398C59.0241 14.3443 59.1697 14.4727 59.2937 14.6206C59.3561 14.6942 59.4128 14.7726 59.463 14.855C59.4889 14.8962 59.5119 14.9393 59.5353 14.9822C59.5586 15.025 59.5782 15.0705 59.5966 15.1165C59.6765 15.3055 59.7206 15.5077 59.7264 15.7128C59.7319 15.931 59.687 16.1476 59.5952 16.3456C59.5719 16.395 59.5458 16.443 59.5171 16.4894C59.4886 16.5346 59.4576 16.5782 59.4244 16.62C59.3597 16.702 59.2862 16.7767 59.2053 16.8427C59.128 16.9062 59.045 16.9624 58.9574 17.0107C58.7912 17.1007 58.612 17.1643 58.4261 17.1991C58.337 17.2167 58.2466 17.2276 58.1558 17.2316C58.0682 17.2355 57.9804 17.2346 57.8929 17.2287C57.8065 17.2215 57.7236 17.2106 57.6415 17.1971C57.4826 17.1677 57.3261 17.1263 57.1733 17.0734C57.0262 17.0233 56.882 16.9651 56.7414 16.8988C56.7091 16.8835 56.6828 16.8579 56.6668 16.8259C56.6509 16.7939 56.6461 16.7575 56.6534 16.7225C56.6607 16.6875 56.6796 16.656 56.707 16.633C56.7344 16.61 56.7687 16.597 56.8045 16.5959C56.958 16.5916 57.108 16.5944 57.2537 16.5936C57.3265 16.5936 57.3976 16.5936 57.4685 16.5893C57.5393 16.5849 57.6078 16.5826 57.6755 16.5769C57.7432 16.5711 57.8085 16.5631 57.8722 16.5521C57.9342 16.5427 57.9956 16.5298 58.0561 16.5133C58.1689 16.4834 58.2777 16.4402 58.3804 16.3847C58.4276 16.359 58.4731 16.3302 58.5165 16.2984C58.5269 16.2907 58.5364 16.2823 58.5453 16.2743C58.5555 16.2668 58.5651 16.2587 58.5741 16.2498L58.6029 16.2251L58.6277 16.1992C58.6591 16.1665 58.6871 16.1307 58.7112 16.0922C58.7239 16.0747 58.7322 16.0551 58.7432 16.037C58.7541 16.0189 58.7604 16.0004 58.7665 15.9817C58.7942 15.9051 58.8059 15.8235 58.8007 15.7421C58.7941 15.6482 58.7723 15.5559 58.7362 15.4689C58.6549 15.2735 58.5238 15.1028 58.3562 14.9736C58.3153 14.9417 58.272 14.9128 58.2269 14.8873C58.216 14.8804 58.2044 14.8755 58.1935 14.8691C58.1825 14.8629 58.1711 14.8574 58.1595 14.8525C58.1477 14.8476 58.1382 14.8415 58.1241 14.8369L58.0841 14.822C58.0314 14.7995 57.9747 14.786 57.9188 14.7685C57.89 14.7624 57.8612 14.7564 57.8324 14.7492C57.8036 14.742 57.7731 14.7397 57.7435 14.7342C57.5033 14.6963 57.2396 14.7089 56.9686 14.7512C56.8333 14.7736 56.6962 14.8027 56.5575 14.8375C56.4187 14.8723 56.2796 14.9146 56.1368 14.956H56.133C56.0985 14.966 56.0616 14.964 56.0283 14.9503C55.9951 14.9365 55.9675 14.9119 55.9501 14.8804C55.9328 14.849 55.9267 14.8125 55.9328 14.7771C55.9389 14.7417 55.9569 14.7094 55.9839 14.6856L55.9856 14.6862Z" fill="#1B1B1B"/>
<path d="M30.3439 29.1726C30.3211 29.2489 30.29 29.3225 30.2512 29.392C30.0822 29.6938 29.7755 29.9153 29.447 30.0344C29.0439 30.1813 28.6025 30.1983 28.1735 30.2138L27.016 28.5167C27.1337 28.4048 27.2573 28.2991 27.3863 28.2003C27.8789 27.8241 28.4585 27.558 29.0675 27.6075C29.667 27.657 30.2417 28.1336 30.3595 28.691C30.395 28.8503 30.3897 29.0159 30.3439 29.1726Z" fill="white"/>
<path d="M26.9092 28.4052C27.0924 28.1419 27.3147 27.908 27.5686 27.7117C27.8383 27.5004 28.1476 27.3449 28.4782 27.2544C28.5219 27.244 28.5645 27.2311 28.6092 27.2236C28.6538 27.2161 28.6984 27.2083 28.7433 27.2009C28.8345 27.1893 28.9262 27.1835 29.018 27.1836H29.0874C29.1102 27.1836 29.1364 27.1865 29.1608 27.1879C29.1853 27.1893 29.2107 27.1919 29.2351 27.1951C29.2596 27.1983 29.2844 27.2009 29.3086 27.2055C29.405 27.2219 29.5001 27.2459 29.5927 27.2774C29.7755 27.3397 29.9478 27.4292 30.1038 27.5429C30.1823 27.5993 30.2562 27.6617 30.325 27.7295C30.3598 27.7632 30.3926 27.7994 30.4255 27.8354C30.4583 27.8714 30.4888 27.9108 30.5179 27.9505C30.6408 28.1145 30.7324 28.2998 30.788 28.497C30.8451 28.7051 30.8539 28.9235 30.8136 29.1355C30.7733 29.3475 30.6849 29.5474 30.5553 29.7201C30.4953 29.8005 30.4279 29.875 30.3538 29.9427C30.283 30.0075 30.2072 30.0665 30.1272 30.1193C29.9729 30.2191 29.8053 30.2966 29.6293 30.3494C29.5452 30.3742 29.4599 30.3943 29.3736 30.4098C29.2873 30.4236 29.2049 30.4331 29.122 30.4386C28.9606 30.4486 28.7987 30.4463 28.6377 30.4317C28.483 30.4186 28.3292 30.3967 28.177 30.3661C28.1419 30.3591 28.1101 30.3405 28.0869 30.3133C28.0636 30.2861 28.0503 30.2519 28.0489 30.2161C28.0475 30.1804 28.0583 30.1453 28.0794 30.1164C28.1005 30.0875 28.1307 30.0665 28.1652 30.0569C28.3132 30.0158 28.4594 29.9824 28.6005 29.9464C28.6711 29.928 28.7405 29.9108 28.8081 29.8903C28.8758 29.8699 28.9417 29.8506 29.0057 29.8285C29.0696 29.8063 29.1315 29.783 29.1908 29.7572C29.2487 29.733 29.3051 29.7055 29.3598 29.6749C29.4619 29.6191 29.5571 29.5516 29.6434 29.4735C29.6829 29.4368 29.72 29.3976 29.7546 29.3562C29.7629 29.3461 29.7701 29.3355 29.7779 29.3254C29.786 29.3157 29.7933 29.3054 29.7998 29.2946L29.8205 29.2641L29.8386 29.2331C29.8612 29.1937 29.8796 29.1522 29.8936 29.1091C29.9017 29.0887 29.9052 29.068 29.9115 29.0478C29.9178 29.0277 29.9193 29.0081 29.9207 28.9883C29.9291 28.9073 29.9207 28.8254 29.8959 28.7478C29.8669 28.6582 29.8234 28.5738 29.7672 28.4981C29.6408 28.328 29.4721 28.1939 29.2777 28.1089C29.2302 28.0883 29.1814 28.0709 29.1315 28.0569C29.1191 28.0529 29.107 28.0508 29.0946 28.0477C29.0825 28.0442 29.0702 28.0415 29.0578 28.0396C29.0451 28.0376 29.0344 28.0342 29.0198 28.033L28.9771 28.0281C28.9196 28.0192 28.862 28.0195 28.8044 28.016C28.7756 28.016 28.7468 28.0181 28.7157 28.0183C28.6846 28.0186 28.6558 28.0232 28.6256 28.0252C28.3834 28.0462 28.1303 28.1222 27.877 28.2286C27.7508 28.2827 27.6247 28.3437 27.4983 28.4113C27.3719 28.4789 27.2472 28.5528 27.1188 28.6276L27.1154 28.6296C27.0843 28.6475 27.048 28.6544 27.0125 28.6491C26.977 28.6437 26.9443 28.6264 26.9199 28.6001C26.8955 28.5738 26.8808 28.54 26.8782 28.5042C26.8755 28.4684 26.8852 28.4328 26.9055 28.4032L26.9092 28.4052Z" fill="#1B1B1B"/>
<path d="M43.0741 29.7796C43.136 29.7536 43.2004 29.7343 43.2664 29.722C43.5526 29.6683 43.861 29.7468 44.115 29.8946C44.4282 30.0761 44.6765 30.3508 44.9177 30.6192L44.4464 32.2792C44.3109 32.2635 44.1763 32.2406 44.0433 32.2105C43.5348 32.0954 43.0502 31.8653 42.7539 31.4456C42.4628 31.0323 42.4611 30.4043 42.7577 30.0281C42.8408 29.9202 42.9495 29.8348 43.0741 29.7796Z" fill="white"/>
<path d="M44.4297 32.4092C44.1608 32.4329 43.8898 32.4155 43.6261 32.3577C43.344 32.2975 43.0768 32.1818 42.84 32.0174C42.8112 31.9947 42.7787 31.974 42.7499 31.9492L42.6635 31.875C42.6067 31.8227 42.5535 31.7665 42.5043 31.707L42.4668 31.6625C42.4545 31.6478 42.4421 31.6294 42.43 31.6127C42.4179 31.596 42.4055 31.5788 42.3946 31.5612C42.3836 31.5437 42.3715 31.5261 42.3615 31.5083C42.3202 31.4371 42.2847 31.3627 42.2552 31.2859C42.1965 31.1346 42.1613 30.9753 42.1507 30.8133C42.1448 30.7324 42.1454 30.6511 42.1524 30.5703C42.155 30.5294 42.1608 30.4889 42.1665 30.448C42.1723 30.4072 42.1809 30.3669 42.1913 30.3263C42.2311 30.1583 42.3018 29.9992 42.3998 29.8569C42.5308 29.667 42.7145 29.5197 42.9284 29.4329C43.0521 29.3838 43.1828 29.3547 43.3157 29.3466C43.3997 29.3423 43.4839 29.3453 43.5673 29.3555C43.6473 29.3665 43.7262 29.3837 43.8034 29.407C43.8783 29.4292 43.9513 29.4574 44.0217 29.4913C44.091 29.5236 44.1579 29.5609 44.2218 29.6029C44.2832 29.6438 44.3422 29.688 44.3986 29.7355C44.4533 29.7827 44.5046 29.8316 44.5535 29.8816C44.6469 29.9805 44.7327 30.0862 44.81 30.1981C44.8848 30.3049 44.9535 30.4158 45.0159 30.5303C45.0302 30.5567 45.0352 30.5872 45.0301 30.6168C45.0251 30.6464 45.0102 30.6734 44.9878 30.6935C44.9655 30.7137 44.9371 30.7257 44.9071 30.7278C44.8771 30.7298 44.8473 30.7218 44.8224 30.7049C44.7159 30.6315 44.6157 30.555 44.5164 30.4834C44.4663 30.448 44.4179 30.4124 44.3684 30.3799C44.3188 30.3473 44.2705 30.3151 44.2218 30.2858C44.1731 30.2565 44.1245 30.2283 44.0758 30.2047C44.0291 30.1804 43.981 30.1587 43.9318 30.14C43.8404 30.1044 43.7451 30.0795 43.648 30.066C43.5613 30.0539 43.4733 30.0552 43.3871 30.0701C43.3496 30.077 43.3129 30.0875 43.2774 30.1014C43.2598 30.1072 43.2446 30.1164 43.2281 30.123C43.2117 30.1296 43.1993 30.1394 43.185 30.1492C43.1274 30.1872 43.0784 30.2368 43.041 30.2947C42.9988 30.3625 42.9678 30.4366 42.9491 30.5142C42.9075 30.6872 42.9115 30.8681 42.9607 31.0391C42.9726 31.081 42.9878 31.1219 43.0061 31.1614C43.0102 31.1715 43.0154 31.1804 43.0197 31.1901C43.0239 31.2001 43.0288 31.2097 43.0344 31.2189C43.0398 31.2284 43.0433 31.237 43.0505 31.2477L43.0704 31.2764C43.0954 31.3176 43.1279 31.3547 43.1567 31.3947L43.206 31.4522C43.2218 31.4718 43.2417 31.4881 43.2592 31.5063C43.4032 31.6501 43.5889 31.7735 43.7936 31.8802C43.8967 31.932 44.0041 31.9805 44.1158 32.0258C44.2276 32.0701 44.3424 32.1121 44.4614 32.154H44.4645C44.4936 32.164 44.5184 32.1836 44.5347 32.2097C44.5509 32.2358 44.5576 32.2667 44.5537 32.2971C44.5498 32.3276 44.5354 32.3558 44.5131 32.3769C44.4908 32.398 44.4618 32.4107 44.4311 32.4129L44.4297 32.4092Z" fill="#1B1B1B"/>
<g opacity="0.6">
<path opacity="0.6" d="M47.7719 14.927C47.8484 14.6155 47.972 14.3176 48.1384 14.0433C48.3143 13.7493 48.5471 13.4933 48.8232 13.2903C48.8603 13.2652 48.8954 13.2376 48.9346 13.2149C48.9737 13.1922 49.0123 13.1686 49.0515 13.1456C49.1324 13.102 49.2159 13.0635 49.3017 13.0305L49.3665 13.0058C49.3875 12.9974 49.4131 12.9905 49.4365 12.9831C49.4598 12.9756 49.4843 12.969 49.5084 12.9635C49.5326 12.958 49.5565 12.9511 49.5807 12.9468C49.6766 12.9274 49.774 12.9158 49.8718 12.912C50.0648 12.9047 50.2578 12.9266 50.4442 12.9767C50.5377 13.0011 50.629 13.0329 50.7175 13.0716C50.7621 13.0903 50.8059 13.1125 50.8496 13.1344C50.8934 13.1562 50.936 13.1821 50.9772 13.2091C51.151 13.3184 51.3031 13.4588 51.4258 13.6234C51.5557 13.7991 51.6433 14.0025 51.6818 14.2176C51.6913 14.2715 51.6975 14.3258 51.7005 14.3804C51.7034 14.4338 51.7034 14.4873 51.7005 14.5407C51.6945 14.6448 51.6772 14.748 51.6489 14.8484C51.6221 14.9447 51.5863 15.0383 51.5421 15.128C51.415 15.378 51.2341 15.5967 51.0123 15.7686C50.9428 15.8219 50.8703 15.8713 50.7952 15.9165C50.7209 15.9599 50.6461 15.9987 50.5709 16.0347C50.4239 16.1018 50.272 16.1576 50.1166 16.2018C49.9675 16.2448 49.8162 16.2793 49.6633 16.3054C49.6281 16.3114 49.5918 16.3055 49.5604 16.2884C49.5289 16.2714 49.5041 16.2443 49.49 16.2115C49.4759 16.1786 49.4732 16.142 49.4824 16.1075C49.4917 16.073 49.5123 16.0426 49.541 16.0212C49.6642 15.9297 49.7889 15.846 49.9075 15.7623C49.9668 15.7197 50.0256 15.6789 50.0803 15.6357C50.135 15.5926 50.1906 15.5494 50.2427 15.5069C50.2948 15.4643 50.3437 15.4206 50.3898 15.374C50.4352 15.3308 50.478 15.285 50.5179 15.2368C50.5932 15.1477 50.6576 15.0501 50.71 14.9459C50.7336 14.8974 50.7541 14.8475 50.7713 14.7964C50.7753 14.784 50.7785 14.7716 50.7823 14.7593C50.7863 14.7473 50.7894 14.7351 50.7918 14.7227L50.8001 14.6868L50.8056 14.6514C50.8125 14.6066 50.8148 14.5612 50.8125 14.5159C50.8125 14.4941 50.8085 14.4733 50.807 14.4523C50.8056 14.4313 50.8004 14.4124 50.7944 14.3948C50.7731 14.3161 50.7359 14.2425 50.6849 14.1788C50.6254 14.1058 50.5546 14.0427 50.4753 13.9918C50.2964 13.8786 50.0911 13.8138 49.8796 13.804C49.8278 13.8015 49.776 13.8027 49.7244 13.8077C49.7114 13.8077 49.6993 13.8109 49.6867 13.812C49.674 13.8132 49.6613 13.8152 49.6492 13.8178C49.6371 13.8204 49.6253 13.8213 49.6115 13.8253L49.5701 13.8362C49.5139 13.8504 49.4584 13.8674 49.4039 13.8871C49.3766 13.8983 49.3495 13.9101 49.3219 13.9208C49.2942 13.9314 49.2677 13.947 49.2401 13.9596C49.0218 14.0657 48.8128 14.2277 48.6153 14.4173C48.5174 14.5131 48.4214 14.6152 48.3273 14.7236C48.2346 14.832 48.1439 14.9457 48.0509 15.0616L48.0483 15.0645C48.0258 15.0924 47.9944 15.1118 47.9593 15.1196C47.9242 15.1273 47.8875 15.1229 47.8553 15.1071C47.823 15.0913 47.7971 15.065 47.7818 15.0325C47.7665 15 47.7627 14.9633 47.771 14.9284L47.7719 14.927Z" fill="#1B1B1B"/>
<path opacity="0.6" d="M22.815 32.9746C22.7626 33.0842 22.7119 33.1926 22.6667 33.3008C22.6215 33.4089 22.5803 33.5174 22.5475 33.6244C22.5314 33.6782 22.5161 33.7314 22.5043 33.7849C22.4925 33.8384 22.4804 33.8905 22.4721 33.9428C22.456 34.0438 22.4488 34.146 22.4505 34.2483C22.4502 34.4304 22.4923 34.6101 22.5734 34.7732C22.6103 34.8384 22.6523 34.9004 22.6992 34.9588C22.7424 35.0163 22.7836 35.0738 22.8311 35.1253C22.8768 35.1751 22.9297 35.2178 22.988 35.2519C23.0024 35.2585 23.0168 35.2686 23.0312 35.274C23.0456 35.2795 23.06 35.2853 23.0759 35.2922C23.0917 35.2991 23.1064 35.2993 23.1219 35.304C23.1297 35.3065 23.1377 35.308 23.1458 35.3083L23.17 35.3114C23.1782 35.3131 23.1865 35.3141 23.1948 35.3146H23.2198C23.2373 35.3161 23.2549 35.3156 23.2722 35.3132C23.2898 35.3106 23.3082 35.3103 23.3267 35.3068C23.3451 35.3034 23.3638 35.297 23.3842 35.2927C23.4032 35.2881 23.4218 35.2824 23.4401 35.2755C23.4577 35.2671 23.4767 35.2611 23.4942 35.2513C23.5311 35.2332 23.5665 35.2123 23.6002 35.1889C23.6724 35.1362 23.736 35.0726 23.7888 35.0005C23.8473 34.9226 23.8949 34.8372 23.9305 34.7465C24.0104 34.5465 24.051 34.333 24.0499 34.1177V34.1134C24.0498 34.0759 24.0632 34.0395 24.0877 34.0111C24.1122 33.9826 24.1461 33.9639 24.1833 33.9584C24.2205 33.9529 24.2584 33.9609 24.2901 33.981C24.3218 34.0012 24.3452 34.032 24.356 34.0679C24.3747 34.1304 24.3909 34.1942 24.4038 34.2595C24.4161 34.3254 24.425 34.392 24.4303 34.4588C24.4355 34.5258 24.4369 34.5931 24.4346 34.6602C24.4346 34.6939 24.432 34.7278 24.4294 34.7612C24.4269 34.7945 24.4243 34.8273 24.4191 34.863C24.4002 35.0057 24.3626 35.1452 24.3071 35.2781C24.2479 35.418 24.1677 35.5481 24.0692 35.6638C23.9645 35.7861 23.8386 35.8885 23.6975 35.9661C23.6615 35.9851 23.625 36.0038 23.5881 36.0219C23.5512 36.04 23.5101 36.0524 23.4706 36.0671C23.4305 36.0819 23.3893 36.0937 23.3474 36.1022L23.284 36.1165C23.2626 36.1206 23.241 36.1235 23.2193 36.1252L23.1536 36.1318C23.1317 36.1344 23.1097 36.1355 23.0877 36.1352C23.0436 36.1352 22.9993 36.1352 22.9549 36.1321C22.9106 36.1289 22.8686 36.1209 22.8236 36.1142C22.7787 36.1076 22.7373 36.0947 22.6952 36.084C22.5285 36.036 22.3714 35.9593 22.2311 35.8574C22.0923 35.7599 21.9748 35.6353 21.8855 35.4912C21.8746 35.4734 21.8631 35.4558 21.8533 35.4371C21.8435 35.4184 21.8346 35.3994 21.8245 35.3796C21.8144 35.3598 21.8067 35.3416 21.7977 35.3221C21.7888 35.3025 21.783 35.2827 21.7756 35.2631C21.7469 35.1861 21.7251 35.1067 21.7105 35.0258C21.6811 34.8727 21.6724 34.7164 21.6846 34.561C21.6957 34.4145 21.7235 34.2697 21.7672 34.1295C21.8086 33.9953 21.8636 33.8656 21.9313 33.7426C21.9639 33.6828 21.9987 33.6247 22.0353 33.57C22.0718 33.5154 22.1121 33.4613 22.1522 33.4092C22.3106 33.21 22.4927 33.0308 22.6946 32.8757C22.7088 32.8647 22.7262 32.8588 22.744 32.8589C22.7619 32.859 22.7792 32.8652 22.7932 32.8763C22.8072 32.8875 22.8169 32.9031 22.8209 32.9205C22.8249 32.9379 22.8229 32.9562 22.8153 32.9723L22.815 32.9746Z" fill="#1B1B1B"/>
<path opacity="0.6" d="M49.7279 27.5833C49.8126 27.6877 49.8966 27.7899 49.9839 27.8871C50.0711 27.9843 50.1607 28.0761 50.2522 28.1612C50.2989 28.2032 50.3455 28.244 50.3936 28.2817C50.4417 28.3194 50.4892 28.3568 50.5376 28.3905C50.5859 28.4241 50.636 28.4552 50.6864 28.4834C50.7115 28.4977 50.7371 28.5104 50.7619 28.5242C50.7866 28.538 50.8125 28.5495 50.8385 28.5607C51.0266 28.6503 51.2327 28.6957 51.4411 28.6933C51.4529 28.6933 51.4647 28.6933 51.4762 28.6916L51.5105 28.6885C51.5223 28.6885 51.5332 28.6861 51.5436 28.6844C51.554 28.6827 51.5649 28.6821 51.5756 28.6798C51.6182 28.6723 51.6602 28.6646 51.7017 28.6551C51.7841 28.6385 51.8656 28.6172 51.9456 28.5912C52.0221 28.5646 52.0937 28.5257 52.1578 28.4762C52.2193 28.4289 52.2705 28.3696 52.3084 28.3019C52.3285 28.2665 52.3449 28.2291 52.357 28.1903C52.3711 28.1484 52.3807 28.1052 52.3858 28.0614C52.3969 27.9685 52.3922 27.8743 52.372 27.7829C52.3487 27.6832 52.3104 27.5875 52.2583 27.4993C52.2032 27.4036 52.1354 27.3157 52.0567 27.2381C51.8862 27.0668 51.6841 26.93 51.4615 26.8354H51.4584C51.4235 26.8206 51.3953 26.7936 51.3789 26.7595C51.3625 26.7253 51.3591 26.6864 51.3693 26.65C51.3796 26.6135 51.4027 26.582 51.4344 26.5614C51.4662 26.5407 51.5044 26.5323 51.5419 26.5377C51.6869 26.5575 51.8292 26.5933 51.9663 26.6444C52.0357 26.6705 52.1036 26.7001 52.1699 26.7333C52.2033 26.7497 52.2361 26.767 52.268 26.7851C52.3 26.8032 52.3317 26.8208 52.3648 26.8426C52.4978 26.9266 52.6191 27.0278 52.7256 27.1435C52.8365 27.2648 52.9283 27.4023 52.998 27.5511C53.071 27.7092 53.1153 27.8789 53.129 28.0525C53.1368 28.1416 53.1361 28.2313 53.127 28.3203C53.1181 28.4128 53.0995 28.5041 53.0714 28.5927C53.0429 28.6831 53.0054 28.7704 52.9594 28.8533C52.9128 28.936 52.8583 29.014 52.7967 29.0863C52.6758 29.2284 52.5304 29.3478 52.3674 29.4389C52.2094 29.5305 52.035 29.5903 51.854 29.615C51.6754 29.6369 51.4943 29.626 51.3196 29.5827C51.1547 29.5447 50.9957 29.485 50.8465 29.4053C50.7051 29.33 50.5726 29.2391 50.4515 29.1343C50.3349 29.0341 50.2288 28.9224 50.1348 28.8009C50.0887 28.7417 50.0452 28.6815 50.0052 28.6203C49.9652 28.559 49.9289 28.4954 49.8937 28.4324C49.7611 28.1852 49.6586 27.923 49.5883 27.6515C49.5836 27.634 49.5851 27.6155 49.5925 27.599C49.5999 27.5825 49.6128 27.569 49.6289 27.5608C49.645 27.5526 49.6634 27.5502 49.6811 27.5539C49.6988 27.5576 49.7147 27.5673 49.7262 27.5813L49.7279 27.5833Z" fill="#1B1B1B"/>
<path opacity="0.6" d="M20.3062 21.5625C20.3041 21.739 20.3262 21.915 20.3719 22.0855C20.3834 22.1258 20.3964 22.1646 20.4111 22.2023C20.4248 22.2394 20.4405 22.2758 20.458 22.3113C20.4911 22.3783 20.5313 22.4417 20.5778 22.5003L20.6115 22.5397C20.6224 22.5529 20.6362 22.5644 20.648 22.5765C20.6708 22.6015 20.7001 22.6211 20.724 22.6432C20.7373 22.6533 20.7528 22.6622 20.7649 22.672L20.7848 22.6861C20.7914 22.6904 20.7989 22.6941 20.8058 22.6982C20.8199 22.7059 20.8346 22.714 20.847 22.722L20.8893 22.741C20.8962 22.7442 20.9028 22.7479 20.9098 22.7505L20.9311 22.7571C20.9455 22.7614 20.9581 22.7681 20.972 22.7718C20.9855 22.7748 20.9989 22.7787 21.012 22.7833C21.0246 22.7885 21.0376 22.7896 21.05 22.7937C21.0745 22.8026 21.0984 22.8072 21.1217 22.8161C21.1335 22.821 21.145 22.8221 21.1568 22.8259C21.1681 22.8305 21.1799 22.8338 21.1919 22.836C21.204 22.838 21.2158 22.8406 21.2282 22.8437C21.2406 22.8469 21.2527 22.8454 21.2654 22.8472L21.2844 22.8495C21.2908 22.8499 21.2972 22.8499 21.3037 22.8495C21.3163 22.8495 21.3296 22.8495 21.3431 22.8495C21.3566 22.8495 21.3699 22.8446 21.3837 22.8429C21.3979 22.8417 21.4119 22.839 21.4254 22.8348C21.4547 22.8268 21.4836 22.8172 21.5118 22.806C21.6333 22.755 21.7385 22.672 21.8165 22.5659C21.8618 22.5071 21.9004 22.4436 21.9316 22.3763C21.94 22.359 21.948 22.3418 21.955 22.3237C21.9628 22.3059 21.9697 22.2878 21.9757 22.2693C21.9826 22.2515 21.9886 22.2319 21.9947 22.2118C22.0007 22.1916 22.0062 22.1718 22.0114 22.1519C22.0549 21.9889 22.0731 21.8202 22.0655 21.6517V21.6491C22.0642 21.6171 22.0744 21.5856 22.0941 21.5602C22.1138 21.5349 22.1418 21.5173 22.1733 21.5106C22.2047 21.5039 22.2375 21.5086 22.2658 21.5237C22.2942 21.5388 22.3162 21.5635 22.3281 21.5933C22.403 21.7861 22.4428 21.9906 22.4456 22.1974C22.4456 22.2236 22.4456 22.2494 22.4456 22.2753C22.4456 22.3012 22.4456 22.3271 22.4419 22.3544C22.4381 22.3818 22.4381 22.4091 22.4344 22.4361C22.4306 22.4632 22.4275 22.4905 22.4228 22.5178C22.4035 22.6289 22.3718 22.7376 22.3284 22.8417C22.2356 23.0668 22.0833 23.2626 21.8879 23.4081C21.8363 23.4448 21.7827 23.4786 21.7272 23.509C21.6993 23.5248 21.6705 23.5389 21.6408 23.551C21.612 23.5637 21.5812 23.5778 21.5498 23.5884C21.5184 23.5991 21.4862 23.6083 21.4537 23.6172C21.4375 23.6215 21.4217 23.6273 21.405 23.6301L21.3549 23.6391C21.3212 23.6445 21.2875 23.6511 21.2535 23.654C21.2196 23.6569 21.1853 23.6572 21.1508 23.6583C21.1164 23.6596 21.0821 23.6582 21.048 23.6543L20.9967 23.6491C20.9797 23.648 20.9629 23.6454 20.9463 23.6414C20.9132 23.6339 20.8798 23.627 20.847 23.6178L20.8225 23.6109L20.7992 23.6019C20.7834 23.5962 20.7678 23.5896 20.7525 23.5835C20.6915 23.5579 20.6331 23.5265 20.5781 23.4898C20.5513 23.4714 20.5259 23.4515 20.5006 23.4322L20.4632 23.4035C20.4511 23.3931 20.4398 23.3819 20.4283 23.371L20.3607 23.3054C20.3399 23.2821 20.3195 23.2588 20.2996 23.2352C20.2898 23.2234 20.2795 23.2119 20.2708 23.1998L20.2438 23.1624C20.2262 23.1374 20.2084 23.113 20.1919 23.0874C20.1598 23.0364 20.1309 22.9835 20.1056 22.9289C20.0935 22.9001 20.0799 22.8751 20.0699 22.8472L20.0411 22.7632C20.0059 22.655 19.9843 22.543 19.9766 22.4295C19.9725 22.3743 19.9714 22.3199 19.9728 22.2658C19.9743 22.2118 19.9803 22.1585 19.9872 22.1062C20.0149 21.9039 20.0809 21.7086 20.1816 21.5309C20.1892 21.5177 20.2009 21.5073 20.215 21.5014C20.2291 21.4956 20.2447 21.4945 20.2595 21.4984C20.2743 21.5023 20.2873 21.5109 20.2966 21.523C20.306 21.5351 20.3111 21.5499 20.3111 21.5651L20.3062 21.5625Z" fill="#1B1B1B"/>
<path opacity="0.6" d="M23.5579 17.267C23.6102 17.4357 23.6851 17.5964 23.7807 17.7448C23.8041 17.7793 23.8283 17.8127 23.8539 17.8441C23.8795 17.8754 23.9048 17.9056 23.9319 17.9335C23.9842 17.9874 24.0422 18.0357 24.1047 18.0773L24.1487 18.1061C24.1634 18.115 24.1798 18.1216 24.1948 18.1297C24.2236 18.1467 24.2581 18.1562 24.2878 18.17C24.3036 18.1754 24.32 18.1795 24.3353 18.1846L24.3586 18.1918C24.3664 18.1938 24.3745 18.1953 24.3825 18.1967C24.3984 18.1999 24.4136 18.2036 24.4289 18.2071L24.475 18.2122C24.4824 18.2122 24.4899 18.2146 24.4974 18.2148H24.5199C24.5348 18.2148 24.5487 18.2169 24.5631 18.2148C24.5769 18.214 24.5907 18.214 24.6045 18.2148C24.6183 18.2148 24.6313 18.2131 24.6443 18.2131C24.6705 18.2131 24.6944 18.2111 24.7194 18.2131C24.7318 18.2131 24.7433 18.2131 24.7557 18.2131C24.7679 18.2143 24.7801 18.2143 24.7923 18.2131C24.8044 18.2114 24.8164 18.2102 24.8291 18.2094C24.8418 18.2085 24.853 18.2036 24.8654 18.2013L24.8844 18.1976C24.8906 18.196 24.8967 18.1939 24.9025 18.1913C24.9146 18.1867 24.927 18.1823 24.9397 18.1783C24.9524 18.1737 24.9639 18.1657 24.9765 18.1599C24.9896 18.1541 25.0021 18.1472 25.014 18.1392C25.037 18.1214 25.0646 18.1067 25.0862 18.0863C25.1862 18.0005 25.2609 17.8893 25.3025 17.7644C25.3271 17.6947 25.344 17.6226 25.3529 17.5492C25.3555 17.5302 25.3578 17.5113 25.3589 17.4917C25.3601 17.4721 25.3618 17.4532 25.3621 17.4342C25.3624 17.4152 25.3621 17.3945 25.3621 17.3735C25.3621 17.3525 25.3621 17.3321 25.3595 17.3113C25.3511 17.1429 25.3167 16.9768 25.2576 16.8189V16.8163C25.2465 16.7862 25.2464 16.753 25.2574 16.7229C25.2684 16.6927 25.2897 16.6673 25.3176 16.6513C25.3455 16.6353 25.3782 16.6297 25.4098 16.6355C25.4415 16.6413 25.47 16.658 25.4905 16.6828C25.6208 16.8433 25.7213 17.0258 25.7874 17.2216C25.7957 17.2461 25.8035 17.2708 25.811 17.2955C25.8185 17.3203 25.8257 17.3453 25.832 17.372C25.8383 17.3988 25.8449 17.4253 25.8498 17.452C25.8547 17.4788 25.8599 17.5061 25.8637 17.5334C25.8792 17.6451 25.8825 17.7581 25.8734 17.8705C25.8539 18.1132 25.7689 18.3461 25.6276 18.5445C25.5898 18.5949 25.5491 18.6429 25.5055 18.6883C25.4835 18.7121 25.4601 18.7344 25.4352 18.755C25.4105 18.7763 25.3868 18.799 25.3601 18.8186C25.3333 18.8382 25.3054 18.8569 25.2774 18.8761C25.2633 18.8853 25.2486 18.8954 25.2348 18.9049L25.1899 18.9288C25.1597 18.944 25.1297 18.961 25.098 18.9739C25.0664 18.9869 25.0341 18.9981 25.0016 19.0096C24.9693 19.0216 24.9362 19.0313 24.9025 19.0384L24.8521 19.049C24.8356 19.053 24.8187 19.0558 24.8018 19.0574C24.7681 19.0602 24.7341 19.0637 24.7001 19.0648H24.6745H24.6494L24.5993 19.0614C24.5335 19.0556 24.4683 19.0436 24.4047 19.0254C24.3736 19.0162 24.3434 19.005 24.3131 18.9938L24.2682 18.9765C24.2535 18.9705 24.2394 18.963 24.2253 18.9564L24.1407 18.9147C24.1139 18.8989 24.0871 18.8828 24.0609 18.8664C24.048 18.8583 24.0347 18.8502 24.022 18.8416L23.9852 18.8129C23.9607 18.7944 23.9359 18.7766 23.9126 18.7576C23.8667 18.7187 23.8233 18.677 23.7825 18.6328C23.7626 18.6104 23.7419 18.5894 23.7249 18.5658L23.6708 18.495C23.6041 18.4029 23.5491 18.3029 23.5072 18.1973C23.4865 18.1459 23.4685 18.0943 23.4534 18.0425C23.439 17.9902 23.4275 17.9381 23.418 17.8861C23.3824 17.6849 23.3853 17.4789 23.4266 17.2788C23.4297 17.2639 23.4377 17.2504 23.4493 17.2405C23.4609 17.2305 23.4755 17.2247 23.4908 17.2239C23.506 17.2231 23.5211 17.2273 23.5337 17.2359C23.5464 17.2446 23.5557 17.2571 23.5605 17.2717L23.5579 17.267Z" fill="#1B1B1B"/>
<path opacity="0.6" d="M52.7912 22.7499C52.9436 22.8387 53.1074 22.9065 53.2781 22.9512C53.3187 22.961 53.359 22.9691 53.399 22.9751C53.438 22.9817 53.4773 22.9862 53.5168 22.9886C53.5915 22.9931 53.6665 22.9899 53.7405 22.9788L53.7915 22.9691C53.8085 22.9662 53.8252 22.9599 53.8416 22.9555C53.8747 22.9483 53.9063 22.9325 53.9374 22.9227C53.9527 22.9161 53.9662 22.9084 53.9824 22.9015L54.0045 22.8914C54.0117 22.8877 54.0184 22.8831 54.0256 22.879C54.0391 22.8704 54.0529 22.8629 54.0664 22.8552L54.1042 22.8281C54.1102 22.8235 54.1168 22.8195 54.1226 22.8149L54.139 22.7996C54.1497 22.7893 54.1618 22.7815 54.1718 22.7709C54.1808 22.7607 54.1904 22.7511 54.2006 22.7421C54.2113 22.7335 54.2191 22.7228 54.2294 22.7133C54.2496 22.6964 54.2651 22.678 54.2847 22.6624C54.2945 22.6547 54.3014 22.6452 54.3106 22.6368C54.3201 22.629 54.3289 22.6204 54.3368 22.6109C54.3443 22.6017 54.3527 22.5928 54.3613 22.5836C54.3699 22.5744 54.3751 22.5632 54.3826 22.5531L54.3941 22.5379C54.3977 22.5325 54.4008 22.5269 54.4033 22.5209C54.4091 22.5094 54.4154 22.4979 54.422 22.4861C54.4287 22.4743 54.4313 22.4605 54.4367 22.4478C54.4426 22.4348 54.4472 22.4212 54.4505 22.4073C54.4578 22.3788 54.4637 22.35 54.4681 22.321C54.484 22.1903 54.4641 22.0578 54.4105 21.9376C54.3817 21.8694 54.3454 21.8047 54.3023 21.7446C54.2916 21.729 54.2804 21.7135 54.2683 21.6985C54.2562 21.6836 54.2444 21.668 54.2314 21.6534C54.2185 21.6387 54.2052 21.6246 54.1905 21.6082C54.1759 21.5918 54.1617 21.5794 54.1468 21.5642C54.0269 21.4456 53.8895 21.346 53.7394 21.2691L53.7368 21.2676C53.7084 21.2527 53.6863 21.2283 53.6742 21.1987C53.6621 21.1691 53.6608 21.1361 53.6706 21.1057C53.6804 21.0752 53.7006 21.0492 53.7277 21.0321C53.7548 21.0151 53.7871 21.0081 53.8188 21.0125C54.0234 21.0431 54.2207 21.1101 54.4016 21.2104C54.4243 21.2228 54.4468 21.236 54.4693 21.2489C54.4917 21.2619 54.5133 21.276 54.5361 21.2915C54.5588 21.307 54.5816 21.322 54.6034 21.3384C54.6253 21.3548 54.6472 21.3715 54.6685 21.3893C54.7555 21.4612 54.8342 21.5425 54.9032 21.6318C55.0526 21.8242 55.147 22.0534 55.1764 22.2951C55.1828 22.358 55.1854 22.4212 55.1842 22.4844C55.1839 22.5167 55.1816 22.549 55.1773 22.581C55.1733 22.6135 55.1712 22.6463 55.1646 22.6788C55.158 22.7113 55.1502 22.7438 55.1422 22.7763C55.1378 22.7927 55.135 22.8094 55.1292 22.8252L55.1119 22.8733C55.1001 22.9049 55.0892 22.9374 55.0748 22.9685C55.0604 22.9996 55.0437 23.0295 55.0273 23.0597C55.0114 23.0897 54.9933 23.1186 54.9732 23.146L54.9444 23.1877C54.9346 23.2018 54.924 23.2153 54.9124 23.2279C54.8894 23.2527 54.8666 23.278 54.8424 23.3019L54.8243 23.3197L54.805 23.3358C54.792 23.3464 54.7788 23.3568 54.7655 23.3669C54.7132 23.4073 54.657 23.4423 54.5977 23.4716C54.5689 23.486 54.5387 23.4978 54.5087 23.5098L54.4638 23.5274C54.4488 23.5328 54.435 23.5369 54.4186 23.5415L54.3279 23.5677C54.2974 23.574 54.2668 23.5803 54.2366 23.5858C54.2214 23.5884 54.2061 23.5915 54.1911 23.5935L54.1453 23.5984C54.1148 23.6013 54.0846 23.6048 54.0543 23.6062C53.9942 23.6084 53.934 23.6069 53.8741 23.6016C53.8453 23.5984 53.8148 23.5973 53.7851 23.5921L53.6988 23.5763C53.5873 23.5531 53.4792 23.5162 53.3768 23.4664C53.327 23.4425 53.2789 23.4163 53.2329 23.3884C53.1868 23.3605 53.1433 23.3286 53.1013 23.2967C52.9394 23.1721 52.8026 23.018 52.6982 22.8425C52.6888 22.8267 52.6861 22.8078 52.6906 22.79C52.6952 22.7722 52.7066 22.757 52.7224 22.7476C52.7329 22.7413 52.7449 22.7381 52.7572 22.7381C52.7695 22.7381 52.7815 22.7413 52.7921 22.7476L52.7912 22.7499Z" fill="#1B1B1B"/>
<g opacity="0.3">
<path opacity="0.3" d="M23.9374 35.3081C22.8254 38.7751 19.534 35.8918 22.0831 33.7681C22.0831 33.7681 21.5233 36.3756 23.9374 35.3081Z" fill="#1B1B1B"/>
</g>
<g opacity="0.3">
<path opacity="0.3" d="M22.2354 22.3969C22.2354 25.676 18.798 24.7673 20.1755 22.0005C20.599 23.1033 21.3808 23.4775 22.2354 22.3969Z" fill="#1B1B1B"/>
</g>
<g opacity="0.3">
<path opacity="0.3" d="M25.6082 17.2407C26.8176 20.6654 22.7102 21.0138 23.4908 17.6906C23.8285 19.2778 25.946 18.828 25.6082 17.2407Z" fill="#1B1B1B"/>
</g>
<g opacity="0.35">
<path opacity="0.35" d="M52.9231 28.1489C53.3685 31.8483 49.0109 31.5581 49.9666 28.1489C51.0017 29.4804 51.9959 29.7172 52.9231 28.1489Z" fill="#1B1B1B"/>
</g>
<g opacity="0.3">
<path opacity="0.3" d="M49.8825 16.1635C50.6378 18.9045 53.2718 16.5441 51.6061 14.377C51.6061 14.3772 51.1802 16.0922 49.8825 16.1635Z" fill="#1B1B1B"/>
</g>
<g opacity="0.3">
<path opacity="0.3" d="M54.824 22.0718C55.9443 25.124 52.866 25.6765 52.9553 23.0644C53.9386 23.4315 54.7255 23.4168 54.824 22.0718Z" fill="#1B1B1B"/>
</g>
</g>
<g opacity="0.3">
<path opacity="0.3" d="M30.3581 28.7018C30.3518 28.753 30.3115 29.0378 30.2513 29.3939C30.0823 29.6956 29.7756 29.9171 29.4471 30.0362C29.044 30.1832 28.6026 30.2001 28.1735 30.2157L27.0161 28.5186C27.1338 28.4066 27.2574 28.301 27.3863 28.2021C27.1384 29.691 30.1024 30.1849 30.3581 28.7018Z" fill="#1B1B1B"/>
</g>
<g opacity="0.35">
<path opacity="0.35" d="M55.6007 33.4817C54.4373 33.3747 53.7366 33.9128 53.4988 35.096C53.3502 34.7105 53.3191 34.2906 53.288 33.8764L54.9428 32.6567C55.1987 32.9005 55.4201 33.178 55.6007 33.4817Z" fill="#1B1B1B"/>
</g>
</svg>
